<?xml version="1.0" encoding="UTF-8"?>
<svg id="App_Icon_DM" data-name="App Icon DM" xmlns="http://www.w3.org/2000/svg" viewBox="0 0 1080 1080">
  <defs>
    <style>
      .cls-1 {
        fill: #fff;
      }

      .cls-2 {
        fill: #323232;
      }
    </style>
  </defs>
  <rect class="cls-2" width="1080" height="1080"/>
  <path class="cls-1" d="M436.87,333.74c26.56,0,47.27,11.8,62.11,35.39,14.84,23.6,22.27,49.3,22.27,77.11,0,12.81-1.33,25-3.98,36.56-2.66,11.56-5.7,21.88-9.14,30.94l-133.6,26.72c-4.69-9.06-9.53-21.64-14.53-37.74-5-16.09-7.5-34.92-7.5-56.49,0-32.19,7.97-58.99,23.91-80.4,15.94-21.41,36.1-32.11,60.47-32.11ZM462.65,652.51c-22.19,0-39.46-7.73-51.8-23.2-12.34-15.47-19.3-33.36-20.86-53.67l120.94-24.38c2.5,5.31,4.84,11.33,7.03,18.05,2.19,6.72,3.28,13.67,3.28,20.86,0,17.81-5.55,32.66-16.64,44.53-11.09,11.88-25.08,17.81-41.96,17.81ZM643.13,427.49c24.38,0,44.53,10.7,60.47,32.11,15.94,21.41,23.91,48.21,23.91,80.4,0,21.56-2.5,40.39-7.5,56.49-5,16.09-9.84,28.67-14.53,37.74l-133.6-26.72c-3.44-9.06-6.48-19.38-9.14-30.94-2.66-11.56-3.98-23.75-3.98-36.56,0-27.81,7.42-53.52,22.27-77.11,14.84-23.6,35.55-35.39,62.11-35.39ZM617.35,746.26c-16.88,0-30.86-5.94-41.96-17.81-11.09-11.88-16.64-26.72-16.64-44.53,0-7.19,1.09-14.14,3.28-20.86,2.19-6.72,4.53-12.74,7.03-18.05l120.48,24.38c-1.56,20.31-8.44,38.21-20.63,53.67-12.19,15.47-29.38,23.2-51.57,23.2Z"/>
</svg>