<?xml version="1.0" encoding="UTF-8"?>
<svg id="App_Logo_LM" data-name="App Logo LM" xmlns="http://www.w3.org/2000/svg" viewBox="0 0 1080 1080">
  <defs>
    <style>
      .cls-1 {
        fill: #fff;
      }

      .cls-2 {
        fill: #323232;
      }
    </style>
  </defs>
  <rect class="cls-1" width="1080" height="1080"/>
  <g>
    <path class="cls-2" d="M206.26,618.03l59.75-159.62h34.56l59.97,159.62h-33.22l-37.23-105.9-5.8-19.17h-1.78l-5.8,19.17-37.23,105.9h-33.22ZM238.14,579.91l9.59-27.65h33.89v27.65h-43.47ZM281.61,579.91v-27.65h37.23l9.81,27.65h-47.04Z"/>
    <path class="cls-2" d="M360.53,529.3v-24.97h20.96v24.97h-20.96ZM418.05,619.81c-11.74,0-20.96-3.38-27.64-10.14-6.69-6.76-10.03-16.09-10.03-27.98v-109.46h29.21v104.11c0,5.5,1.11,9.55,3.34,12.15,2.23,2.6,5.87,3.9,10.92,3.9,2.38,0,4.61-.34,6.69-1,2.08-.67,4.68-1.97,7.8-3.9v28.54c-3.27,1.19-6.58,2.12-9.92,2.79s-6.8,1-10.37,1ZM408.47,529.3v-24.97h28.98v24.97h-28.98Z"/>
    <path class="cls-2" d="M659.94,621.59c-8.03,0-15.13-1.6-21.29-4.79-6.17-3.19-11.04-7.69-14.6-13.49-3.57-5.8-5.35-12.49-5.35-20.06s2.04-14.64,6.13-20.29c4.09-5.65,9.59-10.03,16.5-13.15,6.91-3.12,14.6-4.68,23.07-4.68,4.61,0,8.81.26,12.6.78,3.79.52,7.17,1.15,10.14,1.89,2.97.75,5.42,1.56,7.36,2.45v-4.9c0-6.09-2.31-11.11-6.91-15.05-4.61-3.94-10.92-5.91-18.95-5.91-5.35,0-10.52,1.23-15.49,3.68-4.98,2.45-9.11,5.68-12.37,9.7l-18.73-14.71c3.71-4.75,8.03-8.81,12.93-12.15,4.9-3.34,10.33-5.87,16.28-7.58,5.94-1.71,12.18-2.56,18.73-2.56,17.39,0,30.62,4.01,39.68,12.04,9.06,8.03,13.6,19.77,13.6,35.22v70h-28.76v-11.59h-1.78c-2.08,2.68-4.68,5.17-7.8,7.47-3.12,2.31-6.76,4.16-10.92,5.57-4.16,1.41-8.84,2.12-14.05,2.12ZM666.85,598.86c5.94,0,10.96-1.3,15.05-3.9,4.09-2.6,7.21-5.98,9.36-10.14,2.15-4.16,3.23-8.55,3.23-13.15-3.27-1.63-6.99-2.93-11.15-3.9-4.16-.97-8.4-1.45-12.71-1.45-8.62,0-14.57,1.64-17.83,4.9-3.27,3.27-4.9,7.28-4.9,12.04,0,4.46,1.6,8.17,4.79,11.15,3.19,2.97,7.91,4.46,14.16,4.46Z"/>
    <path class="cls-2" d="M753.8,618.03v-159.62h58.19c10.7,0,20.03,2.16,27.98,6.46,7.95,4.31,14.16,10.26,18.61,17.83,4.46,7.58,6.69,16.27,6.69,26.08,0,7.28-1.53,13.93-4.57,19.95-3.05,6.02-7.21,11.22-12.48,15.61-5.28,4.39-11.45,7.77-18.5,10.14-7.06,2.38-14.6,3.57-22.63,3.57h-36.56v-27.64h41.24c4.61,0,8.62-.96,12.04-2.9,3.42-1.93,6.13-4.57,8.14-7.91,2.01-3.34,3.01-7.1,3.01-11.26,0-3.86-.86-7.47-2.56-10.81-1.71-3.34-4.27-6.05-7.69-8.14-3.42-2.08-7.58-3.12-12.49-3.12h-28.31v131.76h-30.1ZM789.02,545.57h35.22l49.49,70.67v1.78h-34.55l-50.16-72.45Z"/>
    <path class="cls-2" d="M489.28,460.19c10.28,0,18.29,4.56,24.03,13.69s8.62,19.08,8.62,29.84c0,4.96-.51,9.67-1.54,14.15s-2.21,8.46-3.54,11.97l-51.7,10.34c-1.81-3.51-3.69-8.37-5.62-14.6s-2.9-13.51-2.9-21.86c0-12.46,3.08-22.82,9.25-31.11,6.17-8.28,13.97-12.43,23.4-12.43ZM499.26,583.53c-8.59,0-15.27-2.99-20.04-8.98-4.78-5.99-7.47-12.91-8.07-20.77l46.8-9.43c.97,2.06,1.87,4.38,2.72,6.98.85,2.6,1.27,5.29,1.27,8.07,0,6.89-2.15,12.64-6.44,17.23-4.29,4.6-9.7,6.89-16.23,6.89ZM569.09,496.47c9.43,0,17.23,4.14,23.4,12.43,6.17,8.28,9.25,18.65,9.25,31.11,0,8.34-.97,15.63-2.9,21.86-1.93,6.23-3.81,11.1-5.62,14.6l-51.7-10.34c-1.33-3.51-2.51-7.5-3.54-11.97-1.03-4.47-1.54-9.19-1.54-14.15,0-10.76,2.87-20.71,8.62-29.84,5.74-9.13,13.76-13.69,24.03-13.69ZM559.12,619.81c-6.53,0-11.94-2.3-16.23-6.89-4.29-4.6-6.44-10.34-6.44-17.23,0-2.78.42-5.47,1.27-8.07.85-2.6,1.75-4.93,2.72-6.98l46.62,9.43c-.6,7.86-3.27,14.78-7.98,20.77s-11.37,8.98-19.95,8.98Z"/>
  </g>
</svg>